# xmcd
# 
# Track frame offsets:
#     150
#     8990
#     25275
#     38485
#     53342
#     63082
#     77527
#     92305
#     107085
#     123795
#     141297
#     156010
#     166097
#     186772
#     202885
#     217832
#     231947
#     248037
# 
# Disc length: 3559 seconds
# 
# Revision: 5
# Processed by: cddbd v1.5.1PL2 Copyright (c) Steve Scherf et al.
# Submitted via: BonkEnc v0.9
# 
DISCID=ce0de512
DTITLE=Ray Charles - The Very Best Of CD1
DYEAR=1993
DGENRE=Blues
TTITLE0=Hit The Road Jack
TTITLE1=Georgia On My Mind
TTITLE2=Take These Chains From My Heart
TTITLE3=Here We Go Again
TTITLE4=Busted
TTITLE5=Feel So Bad
TTITLE6=Hard Hearted Hannah
TTITLE7=You Don't Know Me
TTITLE8=What Have They Done To My Song Ma
TTITLE9=Ruby
TTITLE10=Born To Lose
TTITLE11=Sticks and Stones
TTITLE12=I've Got News For You
TTITLE13=Whitout Love (There Is Nothing)
TTITLE14=Smack Dab In The Middle
TTITLE15=One Mint Julep
TTITLE16=Your Cheatin' Heart
TTITLE17=I Can't Stop Loving You
EXTD=
EXTT0=
EXTT1=
EXTT2=
EXTT3=
EXTT4=
EXTT5=
EXTT6=
EXTT7=
EXTT8=
EXTT9=
EXTT10=
EXTT11=
EXTT12=
EXTT13=
EXTT14=
EXTT15=
EXTT16=
EXTT17=
PLAYORDER=
